<?xml version="1.0" encoding="utf-8"?>
<svg version="1.0" width="525.000000pt" height="456.000000pt" viewBox="22.626 14.559 477.057 401.878" preserveAspectRatio="xMidYMid meet" xmlns="http://www.w3.org/2000/svg">
  <g transform="translate(0.000000,456.000000) scale(0.100000,-0.100000)" fill="#000000" stroke="none">
    <path d="M 2350 4338 C 2350 4346 302.544 4354.171 301.544 4353.171 C 299.544 4352.171 456.159 3881.51 456.159 3881.51 C 456.159 3881.51 859.395 3872.248 860.395 3871.248 C 861.395 3870.248 888.117 3826.545 888.117 3826.545 L 878 3010 L 1750 3010 L 1765 3832 L 1805.637 3877.661 L 2188.496 3882.704 C 2188.496 3882.704 2350 4320 2350 4338 Z" style="fill: rgb(31, 51, 63);"/>
    <path d="M 2517 4310 C 2515 4310 2360 3866 2360 3851 C 2360 3840 3941 3018 3941 3018 L 4948.432 3022.989 C 4948.432 3022.989 2520 4310 2517 4310 Z" style="fill: rgb(31, 51, 63);"/>
    <path d="M 1923 3720 L 1910 3015 L 3552.929 3016.4 L 2254.157 3717.949 L 1923 3720 Z" style="fill: rgb(31, 51, 63);"/>
    <path d="M 1558.92 2639.787 C 1558.92 2639.787 1433 2400 1429 2400 C 1423 2400 1305.1 2639.277 1305.1 2639.277 L 1213 2640 C 1208.664 2403.754 1204.734 2154.39 1204.734 2154.39 C 1258.475 2154.19 1307.174 2155.076 1307.174 2155.076 L 1308 2253 C 1309 2306 1309.513 2351.226 1309.513 2351.226 C 1355 2290 1389.386 2231.683 1389.386 2231.683 C 1427 2230 1469.829 2232.077 1469.829 2232.077 C 1474.66 2243.558 1544.246 2354.08 1544.246 2354.08 L 1548.304 2153.753 L 1645 2155 L 1647 2639.582 L 1558.92 2639.787 Z"/>
    <path d="M 2245 2645 L 1853.089 2643.994 L 1849.504 2151.143 L 2240 2150 L 2240 2259 L 1954.796 2260.472 L 1955.587 2320.94 L 2190 2321 L 2190 2419 L 1953.166 2420.532 L 1952.428 2539.391 L 2243.729 2540.049 L 2245 2645 Z"/>
    <path d="M 2441.694 2647.401 L 2441.987 2545.089 L 2602.752 2545.716 L 2602.895 2155 L 2704.013 2155.851 L 2704.915 2548.524 L 2869.758 2548.813 L 2869.986 2646.912 L 2441.694 2647.401 Z"/>
    <path d="M 3033.284 2446.416 L 3035.41 2356.783 L 3390.492 2359.628 L 3390.066 2448.813 L 3033.284 2446.416 Z"/>
    <path d="M 2506 1791 L 4860 572 L 4744 955 L 3123 1800 L 2506 1791 Z" style="fill: rgb(31, 51, 63);"/>
    <path d="M 3488.778 1801.643 L 4321.31 1356.853 L 4320 1800 L 3488.778 1801.643 Z" style="fill: rgb(31, 51, 63);"/>
    <path d="M 2397 1662 L 505 1645 L 2742 478 L 4663.271 461.637 L 2397 1662 Z" style="fill: rgb(31, 51, 63);"/>
    <path d="M 4000.076 2600.074 C 3926.846 2686.946 3554.52 2714.084 3554.617 2411.913 C 3554.706 2135.846 3888.554 2103.916 3988.076 2231.074 C 3987.344 2231.744 3955.753 2329.674 3955.076 2329.074 C 3820.197 2209.547 3657.342 2286.856 3660.076 2410.074 C 3662.915 2538.043 3817.878 2617.93 3947.955 2501.701 C 3949.898 2499.965 4001.063 2598.903 4000.076 2600.074 Z" style=""/>
  </g>
</svg>